<?xml version="1.0" encoding="utf-8"?>
<!-- Generator: Adobe Illustrator 23.0.3, SVG Export Plug-In . SVG Version: 6.00 Build 0)  -->
<svg version="1.1" id="Layer_1" xmlns="http://www.w3.org/2000/svg" xmlns:xlink="http://www.w3.org/1999/xlink" x="0px" y="0px"
	 viewBox="0 0 1632 1352.3" style="enable-background:new 0 0 1632 1352.3;" xml:space="preserve">
<style type="text/css">
	.st0{fill:#FFE09E;}
	.st1{clip-path:url(#SVGID_2_);}
	.st2{fill:#FFFBF8;}
</style>
<title>HELLOLAMA_web elemek</title>
<polygon class="st0" points="1433.2,64.9 1399.8,188.6 1357.9,188.6 1338.4,108.3 1318.2,188.6 1276.6,188.6 1242.9,64.9 
	1280.8,64.9 1298.3,153.3 1319.1,64.9 1359.2,64.9 1380.3,152.9 1397.6,64.9 "/>
<path class="st0" d="M1568.4,135.8h-85.8c0.6,7.7,3.1,13.6,7.4,17.6c4.3,4.1,10.1,6.2,16.1,6.1c9.5,0,16-4,19.7-12h40.3
	c-2,8.1-5.9,15.6-11.2,22c-5.5,6.6-12.4,11.8-20.3,15.3c-8.6,3.8-17.9,5.7-27.3,5.5c-12.1,0-22.9-2.6-32.3-7.8
	c-9.4-5.1-17-12.8-22.1-22.2c-5.3-9.6-8-20.8-8-33.7s2.6-24.1,7.8-33.7c5-9.4,12.7-17.1,22.1-22.2c9.4-5.2,20.3-7.8,32.6-7.8
	c12,0,22.6,2.5,31.9,7.5c9.2,4.9,16.8,12.4,21.8,21.5c5.2,9.3,7.9,20.2,7.9,32.6C1569.1,128.4,1568.8,132.1,1568.4,135.8
	 M1530.3,114.8c0-6.5-2.2-11.7-6.7-15.5c-4.4-3.8-10-5.8-16.6-5.8c-5.8-0.2-11.5,1.8-16,5.5c-4.4,3.7-7,8.9-8.1,15.7L1530.3,114.8z"
	/>
<path class="st0" d="M1255.4,281.2c4.3-9.1,11.1-16.7,19.6-22.2c8.3-5.2,17.9-7.9,27.7-7.8c8.7,0,16.4,1.8,22.9,5.3
	c6.2,3.2,11.5,8.1,15.2,14v-17.5h37.9v123.6h-37.9v-17.5c-3.8,5.9-9.1,10.7-15.4,14c-6.6,3.5-14.2,5.3-22.9,5.3
	c-9.7,0.1-19.3-2.6-27.5-7.9c-8.3-5.2-14.8-12.7-19.6-22.4c-4.8-9.7-7.2-20.9-7.2-33.6C1248.2,302,1250.6,290.9,1255.4,281.2
	 M1332.9,292.6c-10.2-10.6-27-11-37.6-0.8c-0.2,0.2-0.5,0.5-0.7,0.7c-5.2,5.4-7.9,12.8-7.9,22.3c0,9.5,2.6,17,7.9,22.5
	c10,10.6,26.7,11.1,37.3,1.2c0.4-0.3,0.7-0.7,1.1-1c5.3-5.5,7.9-12.9,7.9-22.4C1340.8,305.5,1338.2,298,1332.9,292.6"/>
<path class="st0" d="M1467.8,257.6c6.7-3.9,14.4-6,22.2-5.9v40.1h-10.4c-9.5,0-16.6,2-21.3,6.1c-4.7,4.1-7.1,11.2-7.1,21.4v57.4
	h-37.9V253.1h37.9v20.6C1455.4,267.1,1461.1,261.6,1467.8,257.6"/>
<path class="st0" d="M1631.3,324h-85.8c0.6,7.7,3.1,13.5,7.4,17.6c4.3,4.1,10.1,6.3,16.1,6.1c9.4,0,16-4,19.7-12h40.3
	c-2,8.1-5.9,15.6-11.2,21.9c-5.5,6.6-12.4,11.9-20.3,15.4c-8.6,3.8-17.9,5.7-27.3,5.5c-12.1,0-22.9-2.6-32.3-7.8
	c-9.4-5.1-17.1-12.8-22.2-22.2c-5.3-9.6-8-20.8-8-33.7s2.6-24.1,7.9-33.7c5-9.4,12.7-17.1,22-22.2c9.5-5.2,20.3-7.7,32.6-7.8
	c12,0,22.6,2.5,31.9,7.5c9.2,4.9,16.8,12.4,21.8,21.5c5.3,9.3,7.9,20.2,7.9,32.6C1631.9,316.7,1631.7,320.4,1631.3,324 M1593.2,303
	c0-6.5-2.2-11.7-6.7-15.5c-4.4-3.8-10-5.8-16.6-5.8c-5.9-0.2-11.6,1.8-16.1,5.5c-4.4,3.7-7.1,8.9-8.1,15.7L1593.2,303z"/>
<g>
	<defs>
		<rect id="SVGID_1_" y="652.7" width="1632" height="699.6"/>
	</defs>
	<clipPath id="SVGID_2_">
		<use xlink:href="#SVGID_1_"  style="overflow:visible;"/>
	</clipPath>
	<g class="st1">
		<path class="st2" d="M-623.7,555.9c25.4,56.1,57.2,109,94.8,157.8c37.7,48.9,81.3,93,129.6,131.4
			c100.7,79.8,218.8,132.4,350.9,156.4c119.4,21.7,219.3,26.3,314.6,14.5c115.6-14.3,225.3-53,335.2-118.4
			c233.9-139.1,468.7-184.7,717.8-139.6c196.4,35.6,376.1,127.5,519.6,265.6v2090.5H-623.7V555.9z"/>
	</g>
</g>
</svg>
