<?xml version="1.0" encoding="utf-8"?>
<!-- Generator: Adobe Illustrator 23.0.3, SVG Export Plug-In . SVG Version: 6.00 Build 0)  -->
<svg version="1.1" id="Layer_1" xmlns="http://www.w3.org/2000/svg" xmlns:xlink="http://www.w3.org/1999/xlink" x="0px" y="0px"
	 viewBox="0 0 1632 1749.9" style="enable-background:new 0 0 1632 1749.9;" xml:space="preserve">
<style type="text/css">
	.st0{fill:#FFFBF8;}
	.st1{fill:#FBB926;}
	.st2{fill:#FFE09E;}
	.st3{fill:#FDCC63;}
	.st4{fill:none;}
</style>
<title>HELLOLAMA_web elemek</title>
<rect class="st0" width="1632" height="1749.9"/>
<g>
	<path class="st1" d="M559.1,247.8l9.7-21.5C390,145.4,194.9,112.6,0,129.9v23.7C191.6,136.3,383.3,168.4,559.1,247.8z"/>
	<path class="st2" d="M521.9,330.1l9.7-21.6C364.6,233.1,182.1,203.1,0,220.7v23.7C178.8,226.8,357.9,256,521.9,330.1z"/>
	<path class="st3" d="M540.5,288.9l9.7-21.5C377.3,189.3,188.5,157.9,0,175.3V199C185.2,181.5,370.6,212.2,540.5,288.9z"/>
</g>
<g>
	<path class="st4" d="M1229.8,749.3l10.9-21c124.9,65.1,259.3,85.4,391.3,60.9V507.5V0H0v1749.9h1632v-621V904.7
		c-37,5.6-74.3,8.4-111.8,8.2c-57.8-0.3-115.3-7.7-171.2-21.9c-55.8-14.2-109.8-34.8-160.9-61.5l10.9-21
		c49.5,25.8,101.7,45.8,155.8,59.6c54.1,13.7,109.7,20.8,165.6,21.2c37.5,0.2,74.8-2.7,111.7-8.5v-21.9c-36.9,6-74.1,9-111.6,8.8
		c-54.1-0.3-108-7.2-160.4-20.5c-52.4-13.3-103.2-32.7-151.1-57.8l10.9-21c129.6,67.5,272.6,89.4,412.2,66v-21
		C1496.2,837.6,1358.2,816.3,1229.8,749.3z"/>
	<path class="st1" d="M1240.7,728.3l-10.9,21c128.4,66.9,266.5,88.3,402.2,64.1v-24.1C1499.9,813.7,1365.6,793.5,1240.7,728.3z"/>
	<path class="st2" d="M1354.7,868.1c-54.1-13.8-106.4-33.8-155.8-59.6l-10.9,21c51.1,26.7,105.1,47.3,160.9,61.5
		c56,14.2,113.5,21.6,171.2,21.9c37.6,0.2,74.9-2.5,111.8-8.2v-24c-36.9,5.8-74.2,8.7-111.7,8.5
		C1464.5,888.9,1408.9,881.8,1354.7,868.1z"/>
	<path class="st3" d="M1219.8,768.5l-10.9,21c48,25.1,98.7,44.5,151.1,57.8c52.5,13.3,106.3,20.2,160.4,20.5
		c37.5,0.2,74.7-2.8,111.6-8.8v-24.5C1492.4,857.9,1349.3,836,1219.8,768.5z"/>
</g>
</svg>
